<?xml version="1.0" encoding="UTF-8"?>
<svg version="1.1" viewBox="0 0 2048 885" width="576" height="249" xmlns="http://www.w3.org/2000/svg">
<path transform="translate(215,337)" d="m0 0h36l19 1 4 5v35l-5 5-6 1h-106l1 36h54l48 1 5 5 1 3 1 23-2 10-3 4-7 1h-71l-27-1v20l-1 14h110l7 2 1 2 1 10v23l-4 6-2 1h-112v105l588 1 3 4 1 3 1 13v22l-5 5-9 2-137 1h-461l-24-1-8-3-2-13v-297l1-41 5-6 2-1z" fill="#0373DC"/>
<path transform="translate(457,39)" d="m0 0 12 2 11 6 18 12 16 10 13 8 23 14 13 8 24 15 19 12 26 16 19 12 15 9 24 15 42 26 28 17 11 7 13 8 22 14 5 4-1 3-16 1h-62l-16-2-16-9-26-16-14-9-17-11-19-12-21-13-24-15-18-11-23-15-22-14-15-9-24-15-20-12-6 3-19 12-26 16-38 24-24 15-25 15-21 13-19 12-1 3h243l6 2-2 4-19 14-34 24-10 5h-276l-80-1 1-4 24-16 26-16 24-15 25-16 17-11 42-26 25-16 19-12 21-13 11-7 21-13 22-13 23-14 19-12 13-8 10-4z" fill="#0373DC"/>
<path transform="translate(903,627)" d="m0 0h173l25 1 10 3 11 6 9 9 5 10 1 6 1 37v79l-1 7-4 4-9 2h-26l-6-4-1-2-1-78v-28l-4-6-5-3-44-1-1 115-4 4-6 2-7 1h-18l-7-3-3-4-1-5-1-105-1-4-3-1h-52v113l-2 4-7 4-7 1h-19l-7-2-4-4-1-7v-141l4-6 3-3z" fill="#3E3D38"/>
<path transform="translate(564,382)" d="m0 0h25l15 3 10 5 9 8 6 10 3 9v94l-4 10-8 11-8 6-11 5-9 2h-75v46l-3 6-4 3-6 1h-18l-10-2-5-5v-205l5-6zm-48 42v23l1 55h63l5-4 2-8v-56l-3-6-5-3-13-1z" fill="#3C3B36"/>
<path transform="translate(1587,627)" d="m0 0h55l25 1 11 4 9 6 7 7 4 9v69l-3 2-7 1h-97l-4-1 1 18 1 4 104 1 5 4 3 11v13l-3 9-4 5-5 1h-36l-69-1-16-4-10-6-6-5-6-9-4-10-1-7v-83l2-13 5-10 9-8 10-5 8-2zm9 42-8 1-1 6v15h66l1-1v-14l-2-7z" fill="#3D3C37"/>
<path transform="translate(1115,383)" d="m0 0h108l12 3 8 4 11 10 7 12 2 9v112l-3 9-4 3-12 1-99-1-13-4-9-6-7-7-6-12-3-12v-27l3-11 6-10 8-7 8-4 9-2h78l-2-16-5-1-95-1-5-3-3-8-1-7v-11l2-8zm40 98-2 2-1 5v8l2 5 1 1 19 1 42 1 2-1v-20l-4-2z" fill="#3C3B36"/>
<path transform="translate(1806,383)" d="m0 0h106l13 3 10 5 10 10 6 12 2 9v115l-3 5-7 4h-97l-12-1-12-4-10-7-6-7-5-10-3-15v-29l4-11 9-10 10-6 13-3 74-1-1-16-99-1-5-3-3-6v-27l4-5zm89 97-51 1-1 1v11l2 8 2 1 41 1h20v-14l-1-8z" fill="#3D3C37"/>
<path transform="translate(696,383)" d="m0 0h96l12 4 9 7 7 11 2 8v60l-2 5-7 2h-103l1 21 104 2 5 4 2 4 1 6v13l-3 11-5 5h-41l-71-1-13-4-9-5-7-6-6-10-2-6-1-15v-53l1-35 4-10 9-10 9-6zm35 41-20 1-1 1-1 12 1 7 9 1h43l9-1 9 1v-15l-1-6-11-1z" fill="#3D3C37"/>
<path transform="translate(1213,630)" d="m0 0h83l12 3 10 6 6 5 5 7 3 8 1 15 1 73-2 15-5 10-6 7-10 6-8 3-12 2h-70l-19-3-10-4-8-6-7-8-4-9-1-4v-93l3-10 6-9 9-8 9-4zm9 40-4 2-1 2v70l1 3 4 1h66l1-7v-60l-4-6-6-5z" fill="#3C3B36"/>
<path transform="translate(1585,382)" d="m0 0h38l5 5 2 7v20l-3 8-3 2-14 1h-76v15l1 4 47 1 22 1 10 4 9 7 5 7 2 7v43l-4 11-6 8-7 6-12 5-11 2h-99l-6-7-1-3v-12l1-13 3-6 2-1 95-1v-21l-69-1-10-3-10-9-5-10-2-10v-36l3-12 4-7 8-7 12-4z" fill="#3C3B36"/>
<path transform="translate(1847,628)" d="m0 0h99l5 3 2 5v23l-2 7-4 3-55 1-34 1-1 11 2 7 3 1 62 1 13 4 8 6 6 10 2 15v24l-2 13-6 12-9 8-10 5-8 2-10 1h-95l-4-4-2-4v-25l3-6 3-2 8-1 85-1 1-21h-45l-23-1-11-4-10-9-4-9-2-12v-33l3-11 7-10 11-7z" fill="#3D3C37"/>
<path transform="translate(327,383)" d="m0 0h105l5 4 2 10v17l-4 7-7 3h-86v15l2 5 60 1 11 1 10 4 5 4 6 9 2 6v41l-2 11-6 10-9 8-9 4-9 2-27 1h-72l-5-3-3-4-1-3v-25l4-6 4-1 90-1v-21l-63-2-12-2-9-5-5-5-5-8-2-6-1-34 1-11 6-12 7-7 10-5z" fill="#3C3B36"/>
<path transform="translate(895,383)" d="m0 0h99l4 2 2 5 1 8v17l-3 7-4 2-83 1-6 3-3 5-1 4v55l3 7 4 3 89 2 4 4 2 11v15l-2 7-4 4-2 1h-98l-14-4-11-7-10-10-5-10-2-6-1-24v-55l1-13 5-12 9-10 7-6 9-4z" fill="#3D3C37"/>
<path transform="translate(1691,337)" d="m0 0h18l8 3 4 5v37h33l20 1 5 4 1 3v24l-2 5-4 3-7 1h-35l-12-1 1 48v22l4 6 6 3 4 1 35 1 6 5 2 10v12l-1 10-2 4-5 2h-44l-11-2-11-4-10-7-8-8-6-10-4-13-1-38v-40h-10l-12-3-4-4-1-2-1-11v-16l5-5 4-1h19l1-38 6-5z" fill="#3D3C37"/>
<path transform="translate(1366,628)" d="m0 0h29l5 5 6 15 15 43 12 35 3 9 3-1 12-34 12-37 9-26 5-8 1-1h39l5 2 1 5-7 20-19 48-15 39-13 34-5 10-6 4-16 2h-10l-14-1-5-2-5-6-5-11-9-24-11-30-14-36-10-25-6-19 1-7 5-2z" fill="#3C3B36"/>
<path transform="translate(1319,322)" d="m0 0h16l9 2 4 4 1 168 2 5 3 2 29 2 5 5 1 6v24l-3 5-2 1h-41l-12-3-13-7-9-9-6-11-2-9v-170l1-9 5-4z" fill="#3C3B36"/>
<path transform="translate(813,572)" d="m0 0h26l6 2 3 3 1 9v197l-5 6-3 1h-32l-4-2-3-4-1-9v-196l2-4 4-2z" fill="#3F3E39"/>
<path transform="translate(1421,379)" d="m0 0h24l9 3 3 4 1 91v62l-3 5-2 2-11 1h-23l-7-3-3-4v-153l3-5z" fill="#3D3C37"/>
<path transform="translate(1038,379)" d="m0 0h23l10 3 4 4v152l-3 5-4 3-6 1h-25l-8-3-2-3v-153l3-5 4-3z" fill="#3B3B36"/>
<path transform="translate(1741,627)" d="m0 0h30l6 3 2 5v149l-5 6-2 1-21 1-13-1-6-6-1-56v-94l5-6z" fill="#3E3D38"/>
<path transform="translate(1036,321)" d="m0 0h25l10 1 4 3 1 3v29l-5 5-8 1h-29l-4-2-3-6-1-6v-16l3-9z" fill="#3F3E39"/>
<path transform="translate(1750,569)" d="m0 0h20l7 2 3 7v24l-4 7-3 1h-36l-5-4-2-5-1-15 2-10 4-6z" fill="#3F3E39"/>
<path transform="translate(1256,569)" d="m0 0h34l8 1 2 2-1 6-7 11-12 13-6 7-2 1h-27l-11-1-1-5 7-12 7-10 8-12z" fill="#3F3E39"/>
<path transform="translate(1415,322)" d="m0 0h35l6 3 2 6v15l-2 12-4 4-13 1h-18l-8-2-3-3-1-3v-27l3-5z" fill="#3E3D38"/>
<path transform="translate(176,725)" d="m0 0h27l3 3 1 4v57l-2 6-4 1h-23l-5-1-2-6v-56l3-7zm6 10-1 2v47l3 2h10l2-1 1-48-7-2z" fill="#0A77DD"/>
<path transform="translate(228,725)" d="m0 0h25l4 4 1 20-1 1h-9l-1-1v-13h-14v49h14v-10h10l1 1v11l-2 7-1 1-9 1h-16l-6-2-1-2-1-10v-42l1-11 2-3z" fill="#127BDE"/>
<path transform="translate(463,725)" d="m0 0h25l4 2 1 5v14h-10l-1-3 1-7-13-1v10l3 6 19 19 1 2v19l-2 4-3 1h-24l-3-1-2-7v-13h10l1 3-1 7h14l-2-10-7-8-12-12-3-4v-18l2-7z" fill="#0977DD"/>
<path transform="translate(608,725)" d="m0 0h25l3 1 2 6v17l-2 1h-7l-1-1v-13h-12l-2 1v33l-1 15h15v-10h9l1 1v13l-2 6-7 1h-19l-6-2-1-4v-59l2-5z" fill="#0F7ADD"/>
<path transform="translate(509,725)" d="m0 0h30l3 3 1 3v36l-2 3-3 1h-19l1 24-1 1h-9l-1-1zm12 10-2 1v24l1 1h12l1-1v-24l-5-1z" fill="#0574DC"/>
<path transform="translate(692,725)" d="m0 0h9l2 2 11 59 1 9-1 1h-7l-3-2-1-8h-13l-2 9-6 1-5-1 2-12 9-46 2-10zm3 20-4 26v4h10l-2-16-2-13z" fill="#0675DC"/>
<path transform="translate(415,725)" d="m0 0h29v10l-1 1-18-1v18h15l1 1v10h-16v21h18l1 1v9l-1 1h-28l-1-1v-69z" fill="#107BDD"/>
<path transform="translate(274,725)" d="m0 0h29v10l-4 1-14-1v18h14l2 1v9l-1 1-15 1v20h18l1 10-2 1h-27l-1-1z" fill="#0F7ADD"/>
<path transform="translate(342,725)" d="m0 0h29l1 2-1 8-18 1-1 17h15l2 1v9l-1 1h-16v21h18l1 1v9l-1 1h-28z" fill="#0D79DD"/>
<path transform="translate(559,725)" d="m0 0h29v10l-4 1-15-1v18h13l3 1v9l-1 1h-15v21h18l1 1v9l-1 1h-28l-1-2v-63z" fill="#0E79DD"/>
<path transform="translate(122,725)" d="m0 0h8l2 1 6 36 2 10 5-33 2-12 1-2h9l1 4-12 65-2 2h-8l-2-1-10-51-3-18z" fill="#0876DC"/>
<path transform="translate(730,725)" d="m0 0h9l1 1v59h16l1 1v9l-1 1h-26l-1-1v-69z" fill="#127BDE"/>
<path transform="translate(653,725)" d="m0 0h10l1 1v69l-1 1h-9l-1-1z" fill="#0574DC"/>
<path transform="translate(287,707)" d="m0 0 7 1 8 9v1l-7-1-4-2-5 1-5 2-4-1 7-8z" fill="#0E79DD"/>
<path transform="translate(363,707)" d="m0 0h7l3 1v2l-12 7-8 1 3-5 4-5z" fill="#167EDE"/>
</svg>
