<svg width="118" height="88" viewBox="0 0 118 88" fill="none" xmlns="http://www.w3.org/2000/svg">
<g clip-path="url(#clip0_32_35)">
<path d="M107.822 78.4461L107.999 74.4893C109.846 73.5088 111.905 72.9908 113.999 72.9805C111.117 75.321 111.477 79.8327 109.524 82.9802C108.907 83.9572 108.076 84.7838 107.094 85.3987C106.112 86.0136 105.003 86.401 103.85 86.5323L101.438 87.9991C101.108 86.1665 101.181 84.2844 101.652 82.4825C102.124 80.6806 102.983 79.0018 104.171 77.5616C104.846 76.7602 105.619 76.0464 106.473 75.437C107.05 76.9499 107.822 78.4461 107.822 78.4461Z" fill="#F2F2F2"/>
<path d="M25.0342 43.2715C24.8749 43.1271 24.7493 42.9497 24.6665 42.7518C24.5836 42.5539 24.5455 42.3404 24.5546 42.1263C24.5638 41.9122 24.6202 41.7027 24.7197 41.5126C24.8192 41.3225 24.9594 41.1563 25.1305 41.0259L23.4785 36.082L26.1099 36.7844L27.2753 41.3714C27.4769 41.6716 27.5606 42.0347 27.5106 42.3921C27.4607 42.7495 27.2805 43.0762 27.0043 43.3104C26.728 43.5446 26.3749 43.67 26.0118 43.6629C25.6487 43.6557 25.3009 43.5165 25.0342 43.2715Z" fill="#A0616A"/>
<path d="M29.8034 16.4096C30.24 16.6583 32.8233 16.0421 33.3278 16.2174C33.0494 17.9056 34.562 17.2721 32.9194 19.4891C31.2768 21.706 27.9684 28.3531 27.2168 30.8375C26.4653 33.3218 27.2092 36.8229 27.0966 38.0003C27.0422 38.6825 27.0456 39.368 27.1067 40.0496C26.2193 40.0385 25.3445 40.2215 24.4432 40.1046C23.482 37.4025 22.8357 33.5563 22.3968 31.4306C21.9579 29.3049 21.9419 30.2038 22.1432 29.1409C22.3444 28.078 22.3932 28.8504 22.1817 27.8336C21.9703 26.8167 22.8254 25.5391 23.6155 24.8107C23.9562 23.8373 24.3964 22.9296 24.7337 21.9664C27.2051 19.8245 27.3676 18.5872 29.8034 16.4096Z" fill="#AADEF9"/>
<path d="M101.608 85.2577H99.425L98.3863 76.8906H101.609L101.608 85.2577Z" fill="#FFB6B6"/>
<path d="M102.165 87.3605L95.1249 87.3603V87.2718C95.1249 86.5498 95.4137 85.8573 95.9276 85.3468C96.4415 84.8362 97.1385 84.5494 97.8653 84.5494L99.1515 83.5801L101.551 84.5495L102.166 84.5495L102.165 87.3605Z" fill="#2F2E41"/>
<path d="M91.4643 85.2577H89.2809L88.2421 76.8906H91.4647L91.4643 85.2577Z" fill="#FFB6B6"/>
<path d="M92.0212 87.3605L84.9807 87.3603V87.2718C84.9807 86.5498 85.2695 85.8573 85.7834 85.3468C86.2973 84.8362 86.9943 84.5494 87.7211 84.5494L89.0073 83.5801L91.4068 84.5495L92.0214 84.5495L92.0212 87.3605Z" fill="#2F2E41"/>
<path d="M90.5192 39.5156L104.722 39.8684C107.419 41.3239 107.46 44.4741 106.576 48.2143C106.576 48.2143 106.875 50.4374 106.278 51.0302C105.681 51.623 105.383 51.623 105.681 52.6605C105.98 53.6979 104.403 55.3923 104.595 55.5825C104.786 55.7728 105.234 56.8102 105.234 56.8102L103.742 65.2579C103.742 65.2579 102.698 79.9301 102.399 80.2265C102.101 80.5229 101.803 80.2265 102.101 80.9676C102.399 81.7086 102.698 81.4122 102.399 81.7086C102.135 81.9917 101.886 82.2885 101.653 82.5978H98.0466C98.0466 82.5978 97.7747 81.1158 97.7747 80.9676C97.7747 80.8194 97.4763 79.9301 97.4763 79.7819C97.4763 79.6337 97.74 79.3717 97.74 79.3717C97.8312 79.0705 97.8927 78.7611 97.9239 78.4481C97.9239 78.1517 98.819 66.7399 98.819 66.7399L97.0288 51.9194L92.7026 66.4435C92.7026 66.4435 92.7026 79.1891 92.4042 79.4855C92.1059 79.7819 92.1059 79.6337 92.2551 80.2265C92.4042 80.8194 93.0009 80.6712 92.5534 81.1158C92.1059 81.5604 91.9567 80.8194 92.1059 81.5604L92.2551 82.3014L87.7797 82.365C87.7797 82.365 87.1829 81.1158 87.4813 80.6712C87.7797 80.2265 87.7618 80.3479 87.3978 79.6203C87.0338 78.8927 86.8846 78.7445 87.0338 78.5963C87.183 78.4481 87.1829 77.6598 87.1829 77.6598L87.9289 63.4794C87.9289 63.4794 88.078 48.5107 88.078 48.0661C88.0893 47.8373 88.0469 47.6091 87.9541 47.3994V46.7959L88.5256 44.6574L90.5192 39.5156Z" fill="#2F2E41"/>
<path d="M99.0509 10.1761C101.488 10.1761 103.464 8.21338 103.464 5.79217C103.464 3.37097 101.488 1.4082 99.0509 1.4082C96.6138 1.4082 94.6381 3.37097 94.6381 5.79217C94.6381 8.21338 96.6138 10.1761 99.0509 10.1761Z" fill="#FFB6B6"/>
<path d="M96.8445 13.0741C95.8938 13.6356 95.3251 14.6673 94.9986 15.7171C94.3943 17.6607 94.0304 19.6702 93.9153 21.7012L93.5705 27.7816L89.3 40.7287C93.0011 43.8399 106.913 41.4357 106.913 41.4357C106.913 41.4357 107.34 41.2943 106.913 40.8701C106.486 40.4458 106.07 40.8217 106.497 40.3974C106.924 39.9732 106.63 40.4458 106.487 40.0216C106.345 39.5973 106.487 39.8801 106.63 39.7387C106.772 39.5973 105.528 38.3245 105.528 38.3245L106.667 30.8928L108.09 15.9025C106.382 13.7812 102.946 12.5307 102.946 12.5307L102.059 10.9434L97.6205 11.2961L96.8445 13.0741Z" fill="#3F3D56"/>
<path d="M96.2392 3.21897C96.41 3.2203 96.5799 3.24245 96.7452 3.28494C97.0711 3.36277 97.4021 3.41791 97.7357 3.44994C98.7573 3.54542 99.7172 3.97825 100.462 4.67928C101.207 5.38032 101.694 6.30913 101.845 7.31737C102.102 7.09527 102.685 6.68672 103.163 7.06642C103.171 7.07245 103.175 7.07555 103.192 7.06763C103.509 6.91795 104.073 5.07552 104.09 3.4533C104.099 2.59228 103.963 1.4928 103.262 1.14462L103.225 1.12628L103.215 1.08641C103.168 0.892724 102.645 0.562115 101.736 0.304792C100.083 -0.162834 97.6685 -0.230438 96.2814 1.11018C96.1764 1.56213 95.7862 1.68597 95.4412 1.7956C95.0592 1.91694 94.7293 2.02166 94.6773 2.48722C94.6338 3.14974 94.637 3.81448 94.6867 4.47657C94.8162 4.07142 95.0703 3.71682 95.4132 3.46269C95.6571 3.29959 95.9453 3.21455 96.2392 3.21897Z" fill="#2F2E41"/>
<path d="M88.0257 27.4415L95.2341 22.8553L91.6035 18.0605L88.0185 22.4416L76.8484 23.1222C76.5546 22.8337 76.1826 22.6363 75.7779 22.5542C75.3731 22.4721 74.9531 22.5087 74.5689 22.6596C74.1847 22.8106 73.8531 23.0693 73.6144 23.4042C73.3757 23.7392 73.2402 24.1359 73.2245 24.546C73.2089 24.9561 73.3136 25.3619 73.5261 25.7139C73.7385 26.0659 74.0495 26.3489 74.421 26.5283C74.7925 26.7078 75.2086 26.7759 75.6184 26.7245C76.0283 26.6731 76.4142 26.5044 76.7292 26.2388L88.0257 27.4415Z" fill="#FFB6B6"/>
<path d="M101.924 16.4555C102.343 18.9708 94.4422 23.7741 94.4422 23.7741C94.4421 23.1837 89.7267 27.6408 89.5138 27.1511C88.9089 25.7595 88.4836 22.4634 87.6383 21.9358C87.1549 21.6341 90.5497 18.7998 90.5497 18.7998C90.5497 18.7998 92.3267 17.0213 94.6586 14.778C95.3061 14.1316 96.1076 13.6585 96.9886 13.4026C97.8696 13.1468 98.8014 13.1166 99.6973 13.3147C99.6973 13.3147 101.506 13.9401 101.924 16.4555Z" fill="#3F3D56"/>
<path d="M93.8923 45.3342C93.8954 48.026 93.4417 50.699 92.5502 53.2409C92.5093 53.3591 92.4667 53.4755 92.4241 53.5937C90.5992 58.5175 87.2047 62.7141 82.7575 65.5446C82.454 65.7386 82.1468 65.9238 81.8344 66.1037C78.2813 68.1499 74.2592 69.2564 70.1528 69.3172C70.0179 69.319 69.8829 69.3207 69.748 69.3207C69.574 69.3207 69.4018 69.319 69.2296 69.3154C65.1177 69.2342 61.0955 68.1059 57.548 66.0384C57.2356 65.8568 56.9279 65.6681 56.6249 65.4723C51.6874 62.2925 48.0874 57.4324 46.4999 51.8035C44.9124 46.1747 45.4465 40.1638 48.0022 34.8983C48.059 34.7801 48.1176 34.6637 48.1779 34.5455C50.1907 30.5772 53.2731 27.2421 57.0816 24.9118C60.8901 22.5815 65.2751 21.3477 69.748 21.3477C74.2209 21.3477 78.6059 22.5815 82.4144 24.9118C86.2229 27.2421 89.3053 30.5772 91.3181 34.5455C91.3785 34.6637 91.4371 34.7801 91.4939 34.8983C93.0778 38.1518 93.8979 41.7201 93.8923 45.3342Z" fill="#F2F2F2"/>
<path d="M86.4218 53.2422V53.5949H88.5841V53.2422H86.4218ZM82.0971 53.2422V53.5949H84.2595V53.2422H82.0971ZM77.7725 53.2422V53.5949H79.9348V53.2422H77.7725ZM73.4478 53.2422V53.5949H75.6101V53.2422H73.4478ZM69.1231 53.2422V53.5949H71.2855V53.2422H69.1231ZM64.7984 53.2422V53.5949H66.9608V53.2422H64.7984ZM60.4738 53.2422V53.5949H62.6361V53.2422H60.4738ZM56.1509 53.2422V53.5949H58.3114V53.2422H56.1509ZM51.8262 53.2422V53.5949H53.9885V53.2422H51.8262ZM47.5015 53.2422V53.5949H49.6639V53.2422H47.5015ZM92.5502 53.2422H90.7465V53.5949H92.4241L92.5502 53.2422Z" fill="#E6E6E6"/>
<path d="M90.7465 50.7734V51.1262H92.9088V50.7734H90.7465ZM86.4218 50.7734V51.1262H88.5841V50.7734H86.4218ZM82.0971 50.7734V51.1262H84.2595V50.7734H82.0971ZM77.7725 50.7734V51.1262H79.9348V50.7734H77.7725ZM73.4478 50.7734V51.1262H75.6101V50.7734H73.4478ZM69.1231 50.7734V51.1262H71.2854V50.7734H69.1231ZM64.7984 50.7734V51.1262H66.9608V50.7734H64.7984ZM60.4738 50.7734V51.1262H62.6361V50.7734H60.4738ZM56.1509 50.7734V51.1262H58.3114V50.7734H56.1509ZM51.8262 50.7734V51.1262H53.9885V50.7734H51.8262ZM47.5015 50.7734V51.1262H49.6639V50.7734H47.5015Z" fill="#E6E6E6"/>
<path d="M90.7465 45.6582V46.0109H92.9088V45.6582H90.7465ZM86.4218 45.6582V46.0109H88.5841V45.6582H86.4218ZM82.0971 45.6582V46.0109H84.2595V45.6582H82.0971ZM77.7725 45.6582V46.0109H79.9348V45.6582H77.7725ZM73.4478 45.6582V46.0109H75.6101V45.6582H73.4478ZM69.1231 45.6582V46.0109H71.2854V45.6582H69.1231ZM64.7984 45.6582V46.0109H66.9608V45.6582H64.7984ZM60.4738 45.6582V46.0109H62.6361V45.6582H60.4738ZM56.1509 45.6582V46.0109H58.3114V45.6582H56.1509ZM51.8262 45.6582V46.0109H53.9885V45.6582H51.8262ZM47.5015 45.6582V46.0109H49.6639V45.6582H47.5015Z" fill="#E6E6E6"/>
<path d="M90.7465 42.1309V42.4836H92.9088V42.1309H90.7465ZM86.4218 42.1309V42.4836H88.5841V42.1309H86.4218ZM82.0971 42.1309V42.4836H84.2595V42.1309H82.0971ZM77.7725 42.1309V42.4836H79.9348V42.1309H77.7725ZM73.4478 42.1309V42.4836H75.6101V42.1309H73.4478ZM69.1231 42.1309V42.4836H71.2854V42.1309H69.1231ZM64.7984 42.1309V42.4836H66.9608V42.1309H64.7984ZM60.4738 42.1309V42.4836H62.6361V42.1309H60.4738ZM56.1509 42.1309V42.4836H58.3114V42.1309H56.1509ZM51.8262 42.1309V42.4836H53.9885V42.1309H51.8262ZM47.5015 42.1309V42.4836H49.6639V42.1309H47.5015Z" fill="#E6E6E6"/>
<path d="M91.3181 34.5469H90.7465V34.8996H91.4939C91.4371 34.7815 91.3785 34.6651 91.3181 34.5469ZM86.4218 34.5469V34.8996H88.5841V34.5469H86.4218ZM82.0971 34.5469V34.8996H84.2595V34.5469H82.0971ZM77.7724 34.5469V34.8996H79.9348V34.5469H77.7724ZM73.4478 34.5469V34.8996H75.6101V34.5469H73.4478ZM69.1231 34.5469V34.8996H71.2854V34.5469H69.1231ZM64.7984 34.5469V34.8996H66.9608V34.5469H64.7984ZM60.4738 34.5469V34.8996H62.6361V34.5469H60.4738ZM56.1509 34.5469V34.8996H58.3114V34.5469H56.1509ZM51.8262 34.5469V34.8996H53.9885V34.5469H51.8262ZM48.1779 34.5469C48.1176 34.665 48.059 34.7814 48.0022 34.8996H49.6639V34.5469H48.1779Z" fill="#E6E6E6"/>
<path d="M82.7575 35.7344V65.5447C82.454 65.7387 82.1468 65.9239 81.8344 66.1038V35.7344H82.7575Z" fill="#3F3D56"/>
<path d="M70.1528 45.6113V69.3174C70.0179 69.3192 69.883 69.321 69.748 69.321C69.574 69.321 69.4018 69.3192 69.2296 69.3157V45.6113H70.1528Z" fill="#3F3D56"/>
<path d="M57.548 35.7344V66.0385C57.2356 65.8569 56.9279 65.6682 56.6249 65.4724V35.7344H57.548Z" fill="#3F3D56"/>
<path d="M12.3125 76.3082L11.9603 71.4423C9.65357 70.2968 7.10021 69.7279 4.52194 69.7852C8.14921 72.5706 7.85867 78.1377 10.3707 81.9477C11.1634 83.13 12.2137 84.12 13.4438 84.8443C14.674 85.5685 16.0524 86.0085 17.4769 86.1315L20.4957 87.8569C20.841 85.5894 20.6874 83.2746 20.0455 81.0718C19.4036 78.869 18.2886 76.8306 16.7774 75.0971C15.9199 74.133 14.9437 73.2799 13.8716 72.5582C13.2118 74.4403 12.3125 76.3082 12.3125 76.3082Z" fill="#F2F2F2"/>
<path d="M82.1752 38.1045C84.0382 38.1045 85.5483 36.6041 85.5483 34.7534C85.5483 32.9027 84.0382 31.4023 82.1752 31.4023C80.3123 31.4023 78.8021 32.9027 78.8021 34.7534C78.8021 36.6041 80.3123 38.1045 82.1752 38.1045Z" fill="#AADEF9"/>
<path d="M83.9068 33.3562C83.856 33.3081 83.7886 33.2812 83.7185 33.2812C83.6484 33.2812 83.5809 33.3081 83.5302 33.3562C82.8145 33.9233 82.1716 34.5756 81.6161 35.2985C81.4797 35.0364 81.3433 34.7742 81.2069 34.512C81.0495 34.2094 80.5898 34.4767 80.7471 34.7791C80.9465 35.1625 81.146 35.546 81.3455 35.9294C81.3695 35.9686 81.4033 36.0009 81.4436 36.0234C81.4839 36.0458 81.5293 36.0576 81.5754 36.0576C81.6216 36.0576 81.667 36.0458 81.7073 36.0234C81.7475 36.0009 81.7813 35.9686 81.8054 35.9294C82.3974 35.1011 83.1049 34.3607 83.9068 33.7303C83.9563 33.6805 83.9841 33.6133 83.9841 33.5432C83.9841 33.4732 83.9563 33.406 83.9068 33.3562Z" fill="white"/>
<path d="M69.748 47.9814C71.6109 47.9814 73.1211 46.4811 73.1211 44.6304C73.1211 42.7796 71.6109 41.2793 69.748 41.2793C67.8851 41.2793 66.3749 42.7796 66.3749 44.6304C66.3749 46.4811 67.8851 47.9814 69.748 47.9814Z" fill="#AADEF9"/>
<path d="M71.4796 43.2331C71.4288 43.185 71.3614 43.1582 71.2913 43.1582C71.2211 43.1582 71.1537 43.185 71.103 43.2331C70.3872 43.8002 69.7444 44.4526 69.1889 45.1755C69.0525 44.9133 68.9161 44.6512 68.7797 44.389C68.6223 44.0864 68.1626 44.3537 68.3198 44.656C68.5193 45.0395 68.7188 45.423 68.9183 45.8064C68.9423 45.8455 68.9761 45.8779 69.0164 45.9003C69.0566 45.9228 69.102 45.9346 69.1482 45.9346C69.1944 45.9346 69.2398 45.9228 69.28 45.9003C69.3203 45.8779 69.3541 45.8455 69.3782 45.8064C69.9701 44.9781 70.6777 44.2376 71.4796 43.6073C71.5291 43.5574 71.5569 43.4902 71.5569 43.4202C71.5569 43.3502 71.5291 43.2829 71.4796 43.2331Z" fill="white"/>
<path d="M57.1433 38.8095C59.0062 38.8095 60.5164 37.3092 60.5164 35.4585C60.5164 33.6077 59.0062 32.1074 57.1433 32.1074C55.2804 32.1074 53.7702 33.6077 53.7702 35.4585C53.7702 37.3092 55.2804 38.8095 57.1433 38.8095Z" fill="#AADEF9"/>
<path d="M58.8748 34.0612C58.8241 34.0132 58.7566 33.9863 58.6865 33.9863C58.6164 33.9863 58.549 34.0132 58.4982 34.0612C57.7825 34.6283 57.1396 35.2807 56.5841 36.0036C56.4477 35.7414 56.3113 35.4793 56.175 35.2171C56.0175 34.9145 55.5578 35.1818 55.7151 35.4842C55.9146 35.8676 56.114 36.2511 56.3135 36.6345C56.3376 36.6737 56.3714 36.706 56.4116 36.7285C56.4519 36.7509 56.4973 36.7627 56.5435 36.7627C56.5896 36.7627 56.635 36.7509 56.6753 36.7285C56.7156 36.706 56.7493 36.6737 56.7734 36.6345C57.3654 35.8062 58.0729 35.0658 58.8748 34.4354C58.9244 34.3856 58.9522 34.3184 58.9522 34.2483C58.9522 34.1783 58.9244 34.1111 58.8748 34.0612Z" fill="white"/>
<path d="M105.517 33.0749L107.737 24.8621L101.803 23.7461L102.122 29.3833L94.3255 37.359C93.9128 37.3422 93.504 37.4451 93.1491 37.6551C92.7942 37.8652 92.5085 38.1733 92.3268 38.5419C92.1451 38.9104 92.0752 39.3236 92.1258 39.7309C92.1764 40.1382 92.3451 40.5221 92.6115 40.8358C92.8779 41.1495 93.2304 41.3794 93.626 41.4975C94.0216 41.6156 94.4433 41.6168 94.8396 41.5009C95.2359 41.3851 95.5897 41.1571 95.8579 40.845C96.1261 40.5328 96.297 40.1498 96.3499 39.7428L105.517 33.0749Z" fill="#FFB6B6"/>
<path d="M108.344 15.6534C110.359 17.2331 107.773 26.0695 107.773 26.0695C107.373 25.6331 106.908 32.0827 106.419 31.8631C105.028 31.2389 102.48 29.0866 101.497 29.2621C100.935 29.3624 101.524 24.9959 101.524 24.9959C101.524 24.9959 101.632 22.4923 101.836 19.2738C101.876 18.3628 102.148 17.4769 102.626 16.6984C103.104 15.9199 103.772 15.2741 104.569 14.8213C104.569 14.8213 106.33 14.0737 108.344 15.6534Z" fill="#3F3D56"/>
<path d="M38.7745 34.0933L41.2158 44.9166L25.572 43.9499L29.826 33.3203L38.7745 34.0933Z" fill="#A0616A"/>
<path d="M36.1696 84.0464L37.9268 84.0462L38.7628 77.3125H36.1693L36.1696 84.0464Z" fill="#A0616A"/>
<path d="M35.5745 83.1842L38.3523 83.0195V84.2019L40.9934 86.014C41.1238 86.1035 41.2221 86.232 41.2737 86.3809C41.3254 86.5298 41.3279 86.6912 41.2807 86.8416C41.2335 86.9919 41.1392 87.1233 41.0115 87.2167C40.8838 87.31 40.7294 87.3603 40.5709 87.3603H37.2637L36.6937 86.1908L36.4711 87.3603H35.2242L35.5745 83.1842Z" fill="#2F2E41"/>
<path d="M19.5608 83.1784L21.2782 83.5485L23.5322 77.1439L20.9976 76.5977L19.5608 83.1784Z" fill="#A0616A"/>
<path d="M19.1631 82.2109L21.913 82.635L21.6607 83.7906L23.855 86.1177C23.9633 86.2326 24.0319 86.3789 24.0507 86.5353C24.0694 86.6917 24.0374 86.8499 23.9592 86.9869C23.881 87.1239 23.7608 87.2325 23.616 87.2968C23.4713 87.3612 23.3097 87.3778 23.1548 87.3444L19.9228 86.6479L19.6153 85.3848L19.1482 86.4809L17.9296 86.2183L19.1631 82.2109Z" fill="#2F2E41"/>
<path d="M41.6152 53.9658C40.3819 60.6993 40.0736 63.6067 40.0736 63.6067C40.0736 63.6067 40.9986 64.6779 40.3819 65.2905C39.7653 65.9031 40.3819 67.1266 40.3819 67.1266L38.9953 81.9712L37.8792 81.7915L35.1905 81.362L34.2207 81.2063L34.8374 67.2806C34.8374 67.2806 34.2207 66.0554 34.529 65.7491C34.8374 65.4428 34.2207 63.6067 34.2207 63.6067L33.4508 49.0684L28.6744 64.9842C28.6744 64.9842 29.1378 65.5968 28.6744 66.0554C28.2128 66.514 27.2896 68.8104 27.2896 68.8104L24.4493 78.684L24.2081 79.5224L22.7268 79.247L21.1146 78.9458L20.8184 78.891L20.2913 78.7918L19.952 78.7285L19.8366 78.7079L19.2785 78.6035L19.4473 77.8592L19.5351 77.4673L21.938 66.8648L21.9931 66.6201L22.0516 66.3617C22.0516 66.3617 21.7433 65.5968 22.2049 65.1365C22.34 64.9962 22.4386 64.8254 22.4923 64.6387C22.5461 64.4521 22.5532 64.2553 22.5133 64.0653C22.4981 64.0493 22.4843 64.0321 22.4719 64.0139C22.4174 63.9396 22.3798 63.8543 22.3617 63.7641C22.3203 63.5725 22.3565 63.3038 22.6683 62.9941C22.7561 62.9014 22.8298 62.7965 22.887 62.6826C23.3555 61.8014 23.5915 59.9345 23.5915 59.9345C23.5915 59.9345 24.0083 45.148 25.3725 42.8893C25.4449 42.7712 26.8931 40.5045 26.9688 40.4583C28.5087 39.5411 40.5057 40.8079 40.5057 40.8079C40.5057 40.8079 41.2323 42.7472 41.2651 42.9492C41.4425 44.0837 42.6607 48.2539 41.6152 53.9658Z" fill="#2F2E41"/>
<path d="M37.9698 18.3494C37.9698 18.3494 38.2294 17.0107 35.735 14.5325C34.4144 14.0952 32.1263 14.3501 31.3331 14.5325C27.6648 19.343 28.3216 18.4942 27.3667 21.182C27.1191 21.879 26.9953 22.5486 27.1054 23.0953C27.5456 25.2818 28.2602 36.5061 28.1135 37.0892C27.9668 37.6723 26.9396 38.4011 27.9668 38.4011C28.9939 38.4011 42.2394 38.1708 41.946 37.7335C41.6525 37.2961 37.9698 18.3494 37.9698 18.3494Z" fill="#AADEF9"/>
<path d="M53.7009 36.1373C53.4997 36.2147 53.2839 36.2473 53.0687 36.2329C52.8535 36.2185 52.6441 36.1573 52.4552 36.0538C52.2664 35.9502 52.1027 35.8068 51.9756 35.6336C51.8486 35.4604 51.7613 35.2617 51.72 35.0514L46.5287 34.3188L48.3337 32.291L52.9867 33.2976C53.347 33.252 53.7116 33.3392 54.0114 33.5428C54.3112 33.7465 54.5254 34.0523 54.6135 34.4023C54.7015 34.7523 54.6572 35.1223 54.489 35.4421C54.3208 35.7618 54.0404 36.0092 53.7009 36.1373Z" fill="#A0616A"/>
<path d="M31.7378 17.4876C32.1564 17.21 32.6318 17.0797 33.0145 16.709C34.4118 17.7086 34.5146 16.081 35.781 18.5295C37.0473 20.978 41.5642 26.8814 43.4684 28.6565C45.3725 30.4315 48.8591 31.3293 49.8701 31.9538C50.4607 32.3061 51.08 32.6084 51.7215 32.8576C51.3162 33.642 51.0914 34.5016 50.5847 35.2513C47.7213 34.9027 43.9672 33.7644 41.856 33.208C39.7449 32.6515 40.5479 33.0662 39.6796 32.4138C38.8114 31.7613 39.5292 32.062 38.5186 31.7971C37.508 31.5323 36.7375 30.2026 36.4329 29.1754C35.7074 28.4388 35.0855 27.643 34.3676 26.9139C33.5381 23.7616 32.6153 20.6241 31.7378 17.4876Z" fill="#AADEF9"/>
<path d="M35.0158 12.6667C37.3623 12.6667 39.2646 10.7769 39.2646 8.44567C39.2646 6.11444 37.3623 4.22461 35.0158 4.22461C32.6692 4.22461 30.767 6.11444 30.767 8.44567C30.767 10.7769 32.6692 12.6667 35.0158 12.6667Z" fill="#A0616A"/>
<path d="M37.8545 16.1616C37.6531 15.8759 36.1474 13.0428 35.6998 11.9714C35.6538 12.2034 35.6248 12.4384 35.6129 12.6746L35.6085 12.7626L35.5205 12.774C35.3882 12.7907 32.2632 13.1676 30.6369 11.3355C29.6734 10.2504 29.4549 8.62264 29.9866 6.49665C29.8899 6.47779 29.7972 6.44233 29.7128 6.39187C29.5721 6.29517 29.4544 6.16916 29.3679 6.02262C29.2813 5.87609 29.2279 5.71255 29.2115 5.54343L29.1215 5.56741C26.2282 4.16873 28.7208 0.0771095 31.3635 2.11138C31.5953 2.05992 31.837 2.07372 32.0613 2.15122C32.2777 2.23867 32.4662 2.38264 32.6069 2.56789C32.7476 2.75314 32.8352 2.97275 32.8604 3.20345C34.2258 2.48994 36.0329 2.60605 36.9676 3.14138C37.3589 3.36556 37.5836 3.64789 37.6235 3.96285C38.7274 4.0241 39.9147 5.09239 39.9147 6.60596V6.71136H39.8086C39.3645 6.72075 38.9313 6.84997 38.5555 7.08519C38.1796 7.3204 37.8752 7.65275 37.6749 8.04665C37.4034 8.53391 37.269 9.08482 37.2859 9.64148C37.3028 10.1982 37.4703 10.74 37.7708 11.2102C38.0979 11.7088 38.3212 12.2675 38.4276 12.8532C38.534 13.4389 38.5214 14.0399 38.3904 14.6207L37.9917 16.3562L37.8545 16.1616Z" fill="#2F2E41"/>
<path d="M50.1829 87.3954C50.183 87.423 50.1776 87.4503 50.167 87.4758C50.1564 87.5013 50.1408 87.5245 50.1212 87.544C50.1016 87.5635 50.0782 87.579 50.0526 87.5895C50.0269 87.6 49.9994 87.6054 49.9716 87.6053H0.211263C0.155233 87.6053 0.101497 87.5832 0.0618771 87.5438C0.0222577 87.5045 0 87.4511 0 87.3954C0 87.3398 0.0222577 87.2864 0.0618771 87.247C0.101497 87.2077 0.155233 87.1855 0.211263 87.1855H49.9716C49.9994 87.1855 50.0269 87.1908 50.0526 87.2014C50.0782 87.2119 50.1016 87.2273 50.1212 87.2468C50.1408 87.2663 50.1564 87.2895 50.167 87.315C50.1776 87.3405 50.183 87.3678 50.1829 87.3954Z" fill="#CCCCCC"/>
<path d="M118 87.3954C118 87.423 117.995 87.4503 117.984 87.4758C117.973 87.5013 117.958 87.5245 117.938 87.544C117.919 87.5635 117.895 87.579 117.87 87.5895C117.844 87.6 117.816 87.6054 117.789 87.6053H68.0284C67.9723 87.6053 67.9186 87.5832 67.879 87.5438C67.8394 87.5045 67.8171 87.4511 67.8171 87.3954C67.8171 87.3398 67.8394 87.2864 67.879 87.247C67.9186 87.2077 67.9723 87.1855 68.0284 87.1855H117.789C117.817 87.1855 117.844 87.1908 117.87 87.2014C117.895 87.2119 117.919 87.2273 117.938 87.2468C117.958 87.2663 117.973 87.2895 117.984 87.315C117.995 87.3405 118 87.3678 118 87.3954Z" fill="#CCCCCC"/>
<path d="M57.0384 72.269C58.0768 72.269 58.9186 71.4327 58.9186 70.4011C58.9186 69.3695 58.0768 68.5332 57.0384 68.5332C56 68.5332 55.1583 69.3695 55.1583 70.4011C55.1583 71.4327 56 72.269 57.0384 72.269Z" fill="#E6E6E6"/>
<path d="M69.6432 74.2104C70.6816 74.2104 71.5233 73.3741 71.5233 72.3425C71.5233 71.3109 70.6816 70.4746 69.6432 70.4746C68.6048 70.4746 67.763 71.3109 67.763 72.3425C67.763 73.3741 68.6048 74.2104 69.6432 74.2104Z" fill="#E6E6E6"/>
<path d="M82.2479 71.9174C83.2863 71.9174 84.1281 71.0811 84.1281 70.0495C84.1281 69.0179 83.2863 68.1816 82.2479 68.1816C81.2095 68.1816 80.3678 69.0179 80.3678 70.0495C80.3678 71.0811 81.2095 71.9174 82.2479 71.9174Z" fill="#E6E6E6"/>
</g>
<defs>
<clipPath id="clip0_32_35">
<rect width="118" height="88" fill="white"/>
</clipPath>
</defs>
</svg>
