<svg width="56" height="56" viewBox="0 0 56 56" fill="none" xmlns="http://www.w3.org/2000/svg">
<path d="M15.4871 25.4144C15.5028 25.081 15.5993 24.7666 15.7592 24.5279C15.919 24.2892 16.1318 24.1418 16.3593 24.1122C17.6852 23.959 19.8483 23.6526 20.9299 23.6781C25.1169 23.6781 27.0533 23.8313 30.9087 24.2143C31.0327 24.2288 31.1575 24.2048 31.2749 24.1442C31.3922 24.0836 31.4995 23.9876 31.5899 23.8624C31.6804 23.7373 31.7519 23.5858 31.7998 23.4178C31.8477 23.2497 31.871 23.0687 31.8682 22.8867C31.8682 19.1591 31.8682 16.9887 31.8682 13.3122C31.8685 13.2081 31.854 13.1051 31.8254 13.0099C31.7967 12.9147 31.7547 12.8294 31.7021 12.7595C31.6493 12.6897 31.5872 12.6368 31.5196 12.6045C31.452 12.5721 31.3806 12.561 31.3099 12.5717C26.2702 13.0824 21.2149 13.1847 16.1674 12.8781C15.9113 12.8519 15.6725 12.6791 15.5028 12.3972C15.333 12.1153 15.2459 11.7469 15.2603 11.3717C15.2603 10.0185 15.2603 6.95467 15.2603 5.24403C15.2603 4.78444 14.9114 4.65679 14.6672 4.93763C10.6547 9.30362 4.89779 17.2441 4.07787 18.2653C3.25794 19.2867 3.27538 20.308 4.35698 21.4314C7.67061 25.1069 11.1182 28.5161 14.6846 31.6443C14.7802 31.7163 14.8871 31.7504 14.9945 31.7426C15.1019 31.7349 15.206 31.6859 15.2964 31.6003C15.3866 31.5148 15.4599 31.3959 15.5087 31.2557C15.5575 31.1154 15.5802 30.9588 15.5742 30.8016C15.4871 29.525 15.4871 26.4868 15.4871 25.4144Z" fill="#A3BAE5" stroke="#333333" stroke-width="0.6" stroke-miterlimit="10"/>
<path d="M40.5832 30.5966C40.5715 30.9276 40.4781 31.2415 40.3203 31.4806C40.1624 31.7195 39.9506 31.8678 39.7238 31.8981C38.3908 32.0512 36.216 32.3319 35.1285 32.3319C30.9016 32.3319 28.9547 32.1788 25.0962 31.796C24.9715 31.7817 24.8461 31.8055 24.7281 31.8661C24.6101 31.9267 24.5022 32.0227 24.4113 32.1477C24.3204 32.2727 24.2485 32.4242 24.2003 32.5921C24.1521 32.7601 24.1287 32.941 24.1316 33.123C24.1316 36.8486 24.1316 39.0178 24.1316 42.6924C24.1312 42.7963 24.1459 42.8994 24.1746 42.9945C24.2034 43.0897 24.2457 43.1749 24.2986 43.2448C24.3516 43.3146 24.4141 43.3675 24.4819 43.3997C24.5499 43.4321 24.6217 43.4433 24.6928 43.4324C29.7534 42.9094 34.8305 42.8072 39.8991 43.1262C40.1566 43.146 40.3984 43.3124 40.5722 43.5892C40.7462 43.8662 40.8383 44.2315 40.8287 44.6064C40.8287 45.9843 40.8287 49.0465 40.8287 50.7563C40.8287 51.2157 41.197 51.3432 41.4426 51.0625C45.4416 46.6988 51.2294 38.8901 51.966 37.7163C52.7027 36.5424 52.7378 35.7004 51.6854 34.5775C48.363 30.8979 44.9024 27.4902 41.3199 24.37C41.2232 24.2914 41.1138 24.2523 41.0031 24.2567C40.8924 24.2612 40.7847 24.3092 40.6913 24.3954C40.5978 24.4817 40.5221 24.6032 40.4722 24.7469C40.4223 24.8907 40.4 25.0515 40.4078 25.2122C40.6183 26.4881 40.6358 29.5248 40.5832 30.5966Z" fill="#5E71B5" stroke="#333333" stroke-width="0.6" stroke-miterlimit="10"/>
</svg>
