<svg width="56" height="57" viewBox="0 0 56 57" fill="none" xmlns="http://www.w3.org/2000/svg">
<path d="M16.0175 9.14722C13.4513 10.597 10.9577 12.0468 8.53649 13.7431C8.24653 16.2802 7.85508 19.1798 7.53613 21.688C12.6974 30.6913 18.2212 39.68 23.7594 48.4513L39.4028 39.3031L23.8319 12.3803C21.3523 11.0218 18.7321 9.9377 16.0175 9.14722Z" fill="#A3BAE5"/>
<path d="M27.128 34.9247C30.5907 32.6127 31.0262 27.1864 28.1006 22.8046C25.1751 18.423 19.9963 16.7451 16.5336 19.057C13.0708 21.3691 12.6353 26.7954 15.5609 31.1771C18.4864 35.5588 23.6652 37.2367 27.128 34.9247Z" fill="white" stroke="#1A1A1A" stroke-width="0.605319" stroke-miterlimit="10"/>
<path d="M15.785 15.7728C15.8343 15.6328 15.8543 15.4843 15.844 15.3363C15.8336 15.1883 15.7931 15.044 15.7249 14.9122C15.6567 14.7805 15.5623 14.6641 15.4474 14.5702C15.3326 14.4763 15.1997 14.4069 15.057 14.3663C14.9143 14.3256 14.7649 14.3146 14.6178 14.334C14.4707 14.3533 14.3291 14.4025 14.2017 14.4785C14.0743 14.5546 13.9639 14.6559 13.8771 14.7763C13.7904 14.8966 13.7292 15.0335 13.6973 15.1784C13.6481 15.3183 13.6281 15.4669 13.6384 15.6149C13.6487 15.7629 13.6892 15.9072 13.7574 16.0389C13.8256 16.1707 13.9201 16.2871 14.0349 16.381C14.1498 16.4749 14.2827 16.5443 14.4253 16.5849C14.568 16.6255 14.7175 16.6365 14.8646 16.6172C15.0117 16.5979 15.1533 16.5487 15.2806 16.4726C15.408 16.3965 15.5185 16.2952 15.6052 16.1749C15.692 16.0545 15.7532 15.9177 15.785 15.7728Z" fill="white" stroke="#1A1A1A" stroke-width="0.605319" stroke-miterlimit="10"/>
<path d="M24.7155 28.0665C24.5627 27.6157 24.3428 27.1905 24.0631 26.8052C23.9246 26.6125 23.7473 26.451 23.5426 26.3312C23.3378 26.2112 23.1102 26.1357 22.8743 26.1093C22.6349 26.0969 22.3983 26.1662 22.2034 26.3058C22.0085 26.4454 21.8668 26.6471 21.8015 26.8777C21.78 27.099 21.8099 27.3222 21.8885 27.5301C22.1495 28.3854 22.7583 29.2118 22.5988 30.0963C22.4978 30.521 22.2703 30.9052 21.9464 31.1981C21.7814 31.3775 21.579 31.5184 21.3535 31.6111C21.1282 31.7038 20.8851 31.7459 20.6416 31.7346C20.3869 31.6645 20.1489 31.5436 19.9421 31.3792C19.7353 31.2147 19.5639 31.0102 19.4383 30.7776C19.0027 30.131 18.6928 29.4079 18.5249 28.6464" stroke="#1A1A1A" stroke-width="0.605319" stroke-miterlimit="10" stroke-linecap="round"/>
<path d="M25.6728 26.6174L17.9888 31.1408" stroke="#1A1A1A" stroke-width="0.605319" stroke-miterlimit="10" stroke-linecap="round"/>
<path d="M12.2189 9.36409C10.8851 11.9737 9.68173 14.6365 8.60889 17.3525L12.2044 24.529C21.5266 29.0669 31.1533 33.4018 40.664 37.5773L48.464 21.18L20.4538 7.65332C17.6556 7.92838 14.895 8.5019 12.2189 9.36409Z" fill="white"/>
<path d="M12.1603 9.46628C10.8265 12.0614 9.63764 14.7291 8.55029 17.4402L12.1458 24.6022C21.468 29.1256 31.0658 33.475 40.562 37.6505L48.3618 21.2677L20.3662 7.77002C17.5784 8.04218 14.8275 8.61083 12.1603 9.46628Z" fill="#5E71B5"/>
<path d="M12.2605 9.38001C12.2055 9.39783 12.1601 9.4372 12.1346 9.48905C10.8594 12.0815 9.67224 14.7064 8.57297 17.3637C8.54916 17.4213 8.55145 17.4861 8.57944 17.5417C9.68983 19.7494 10.989 22.3762 12.0842 24.6366C12.1052 24.6801 12.1401 24.7148 12.1835 24.7359C21.4223 29.2173 30.9449 33.5278 40.3562 37.6676C40.4625 37.7144 40.5867 37.668 40.6364 37.563L48.2995 21.3729C48.3499 21.2664 48.3048 21.1391 48.1988 21.0879L20.4206 7.6946C20.3848 7.67735 20.3449 7.67036 20.3054 7.6745C17.5716 7.96107 14.8753 8.53269 12.2605 9.38001Z" stroke="#333333" stroke-width="0.605319" stroke-miterlimit="10"/>
<path d="M37.9533 25.4591C39.6062 21.6376 37.0261 16.8441 32.1904 14.7526C27.3547 12.661 22.0947 14.0633 20.4418 17.8849C18.7889 21.7064 21.369 26.4998 26.2046 28.5915C31.0404 30.6831 36.3003 29.2807 37.9533 25.4591Z" fill="white" stroke="#1A1A1A" stroke-width="0.605319" stroke-miterlimit="10"/>
<path d="M15.7421 15.0619C15.6517 14.7908 15.4574 14.5667 15.2018 14.4389C14.9462 14.3111 14.6504 14.2901 14.3793 14.3805C14.1082 14.4708 13.8841 14.6652 13.7563 14.9208C13.6285 15.1763 13.6075 15.4722 13.6979 15.7433C13.7882 16.0144 13.9826 16.2385 14.2381 16.3662C14.3647 16.4295 14.5025 16.4672 14.6436 16.4773C14.7847 16.4873 14.9265 16.4694 15.0607 16.4247C15.1949 16.38 15.319 16.3092 15.4259 16.2165C15.5328 16.1238 15.6204 16.011 15.6836 15.8844C15.7469 15.7579 15.7846 15.6201 15.7947 15.479C15.8047 15.3378 15.7868 15.1961 15.7421 15.0619Z" fill="white" stroke="#1A1A1A" stroke-width="0.605319" stroke-miterlimit="10"/>
<path d="M28.76 18.0488C28.4052 17.787 28.0207 17.568 27.6146 17.3964C27.4001 17.3188 27.1715 17.2878 26.9441 17.3053C26.7166 17.3228 26.4955 17.3885 26.2953 17.4979C26.0959 17.6108 25.943 17.7907 25.8634 18.0056C25.7838 18.2206 25.7827 18.4566 25.8604 18.6723C25.9259 18.8605 26.0295 19.0332 26.1648 19.1796C26.8318 19.7161 27.7452 20.0496 28.093 20.8324C28.2455 21.2201 28.2758 21.645 28.18 22.0502C28.1444 22.2804 28.0584 22.4998 27.9281 22.6928C27.7977 22.8858 27.6263 23.0476 27.4262 23.1667C27.1914 23.252 26.9416 23.2884 26.6922 23.2734C26.4428 23.2585 26.1992 23.1925 25.9763 23.0797C25.2897 22.7949 24.6608 22.387 24.1206 21.8763" stroke="#1A1A1A" stroke-width="0.605319" stroke-miterlimit="10" stroke-linecap="round"/>
<path d="M28.7024 16.4104L25.0488 24.0799" stroke="#1A1A1A" stroke-width="0.605319" stroke-miterlimit="10" stroke-linecap="round"/>
<path d="M33.8352 20.1221C33.4755 19.8437 33.0743 19.6236 32.6465 19.4697C32.4329 19.3899 32.2048 19.3564 31.9774 19.3714C31.7499 19.3863 31.5283 19.4495 31.3271 19.5567C31.1344 19.6758 30.9878 19.8569 30.9114 20.0703C30.835 20.2836 30.8333 20.5165 30.9067 20.7309C30.9912 20.9273 31.1326 21.0939 31.3126 21.2093C31.9795 21.7458 32.8929 22.0648 33.2408 22.8621C33.3881 23.2462 33.4134 23.6665 33.3133 24.0654C33.2803 24.2947 33.1968 24.5136 33.069 24.7067C32.9411 24.8998 32.7721 25.062 32.5739 25.1819C32.3391 25.2673 32.0894 25.3036 31.84 25.2886C31.5906 25.2737 31.347 25.2077 31.1241 25.0949C30.4274 24.8211 29.7917 24.4121 29.2539 23.8916" stroke="#1A1A1A" stroke-width="0.605319" stroke-miterlimit="10" stroke-linecap="round"/>
<path d="M33.7911 18.4834L30.123 26.1529" stroke="#1A1A1A" stroke-width="0.605319" stroke-miterlimit="10" stroke-linecap="round"/>
</svg>
