<svg width="56" height="57" viewBox="0 0 56 57" fill="none" xmlns="http://www.w3.org/2000/svg">
<path d="M6.79112 15.0216L1.5293 28.0396H3.04635L2.41493 40.3114L12.5641 41.5525L53.1853 41.5197L53.3767 28.2857H55.3802L43.4216 10.2812L28.4561 15.1992V13.9499L25.3346 13.8624L25.1569 16.6263L23.1069 17.3398L6.79112 15.0216Z" fill="#9EBBEF"/>
<path d="M55.4978 28.0697C51.8099 21.8829 47.7258 15.941 43.2713 10.2812L26.9938 25.6285C22.3935 25.4672 17.7001 25.243 13.0971 25.0079C11.1816 21.356 8.9971 17.8517 6.56158 14.524C5.03633 19.0894 3.37984 23.6602 1.59766 28.1299L2.98078 28.2037" stroke="black" stroke-width="0.387238" stroke-linecap="round" stroke-linejoin="round"/>
<path d="M25.2856 16.566C24.6378 16.8394 23.9052 17.2741 23.2137 17.1921C17.6193 16.5196 12.0559 15.6439 6.52344 14.5649" stroke="black" stroke-width="0.387238" stroke-linecap="round" stroke-linejoin="round"/>
<path d="M43.1538 10.325C40.584 10.9801 38.0503 11.7694 35.5631 12.6896C34.2784 13.1653 33.0101 13.6738 31.7363 14.185L28.4043 15.5218" stroke="black" stroke-width="0.387238" stroke-linecap="round" stroke-linejoin="round"/>
<path d="M28.4563 13.9965C28.4427 13.9637 28.4563 14.0293 28.4563 13.9965C28.4563 14.6389 28.4564 14.9779 28.4072 15.5301C27.6965 16.096 26.83 16.6045 26.1193 17.1703C25.8578 17.2803 25.5815 17.3512 25.2993 17.3808C25.3786 16.2135 25.5372 15.0736 25.6329 13.9254C25.9663 13.7258 26.051 13.652 26.3243 13.4771C27.1362 13.6411 27.7375 13.8215 28.4563 13.9965Z" stroke="black" stroke-width="0.387238" stroke-linecap="round" stroke-linejoin="round"/>
<path d="M13.1353 25.0518C13.2557 30.5352 13.0449 36.0208 12.5039 41.4788" stroke="black" stroke-width="0.387238" stroke-linecap="round" stroke-linejoin="round"/>
<path d="M2.37695 40.0789C2.61202 35.4807 2.83343 32.151 3.06577 27.5447" stroke="black" stroke-width="0.387238" stroke-linecap="round" stroke-linejoin="round"/>
<path d="M0.501953 40.1995C2.06273 40.451 4.74417 40.7818 5.925 40.8993L12.5645 41.5527" stroke="black" stroke-width="0.387238" stroke-linecap="round" stroke-linejoin="round"/>
<path d="M15.3799 41.1862L15.9266 29.2808C17.9766 29.319 22.1314 29.3819 23.0799 29.5705C23.2083 29.5951 22.8312 37.9987 22.6207 41.3584" stroke="black" stroke-width="0.387238" stroke-linecap="round" stroke-linejoin="round"/>
<path d="M6.42813 22.5829L6.15479 27.561C6.778 27.4052 7.37388 27.2877 7.99436 27.1455C8.11737 25.4342 8.23499 23.6436 8.29239 21.9295C8.3252 21.9295 8.24311 21.8803 8.21031 21.894C7.59256 22.1482 7.03494 22.3259 6.42813 22.5829Z" stroke="black" stroke-width="0.387238" stroke-linecap="round" stroke-linejoin="round"/>
<path d="M12.5645 41.5526C20.6226 41.4569 47.0054 41.7795 55.2412 41.5198" stroke="black" stroke-width="0.387238" stroke-linecap="round" stroke-linejoin="round"/>
<path d="M53.1909 41.5223C53.1909 40.4698 53.21 32.0499 53.0542 28.0696" stroke="black" stroke-width="0.387238" stroke-linecap="round" stroke-linejoin="round"/>
<path d="M53.0518 28.0696C53.8718 28.127 54.7109 28.0696 55.4981 28.0696" stroke="black" stroke-width="0.387238" stroke-linecap="round" stroke-linejoin="round"/>
<path d="M37.2224 29.9696C37.2224 32.255 37.2552 34.5924 37.3345 36.875C35.771 36.875 34.2784 36.7712 32.7149 36.7903C32.7149 36.8231 32.7314 32.0554 32.6768 29.6443C33.8385 29.7427 34.9809 29.8521 36.1426 29.9505C36.5015 29.9842 36.8625 29.9906 37.2224 29.9696Z" stroke="black" stroke-width="0.387238" stroke-linecap="round" stroke-linejoin="round"/>
<path d="M51.3952 30.9016C51.4635 32.7004 51.5374 34.4554 51.5428 36.2953C50.1379 36.2296 47.2813 36.2679 47.2813 36.2953C47.3141 35.4013 47.2541 30.7594 47.2432 30.6118L51.3952 30.9016Z" stroke="black" stroke-width="0.387238" stroke-linecap="round" stroke-linejoin="round"/>
<path d="M42.1044 40.7325C42.1044 39.9343 42.0744 39.013 42.0389 38.212C42.0061 37.4575 41.9733 36.703 41.9706 35.9457C41.9706 34.3192 42.0854 32.6817 41.8394 31.0742C42.892 31.2341 43.9566 31.2999 45.0209 31.2711C45.1002 32.1513 45.1604 32.9578 45.1959 33.8408L45.4119 39.1743C45.4283 39.5925 45.4446 40.2979 45.4638 40.7189" stroke="black" stroke-width="0.387238" stroke-linecap="round" stroke-linejoin="round"/>
<path d="M39.7786 24.2127C39.795 24.6683 39.8141 25.1239 39.836 25.5795C40.4428 25.7572 46.6695 26.1919 46.6695 26.3669C46.6695 26.4106 45.5897 26.1864 45.5897 26.2302C45.4585 24.3439 45.3985 22.5888 45.393 20.6943C45.4104 19.7565 45.3784 18.8185 45.2973 17.884C45.0021 17.8184 44.7151 17.7802 44.4199 17.7146C42.7798 17.351 41.2382 16.9409 39.6255 16.5117C39.8141 16.5637 39.6993 22.0585 39.7786 24.2127Z" stroke="black" stroke-width="0.387238" stroke-linecap="round" stroke-linejoin="round"/>
<path d="M39.7397 21.6729L42.4348 22.0993C43.4407 22.2579 45.4962 22.6461 46.5021 22.7909" stroke="black" stroke-width="0.387238" stroke-linecap="round" stroke-linejoin="round"/>
<path d="M39.814 23.6274C41.6836 24.0074 44.6549 24.1551 46.5491 24.4339" stroke="black" stroke-width="0.387238" stroke-linecap="round" stroke-linejoin="round"/>
<path d="M42.5308 17.4519C42.5781 20.264 42.5855 23.0779 42.5527 25.8937" stroke="black" stroke-width="0.387238" stroke-linecap="round" stroke-linejoin="round"/>
<path d="M49.5034 31.0986C49.5444 32.6213 49.5035 34.7482 49.5636 36.249" stroke="black" stroke-width="0.387238" stroke-linecap="round" stroke-linejoin="round"/>
<path d="M32.7344 34.1963C33.4287 34.2373 34.1228 34.281 34.8171 34.2646C35.6372 34.2455 36.4572 34.1443 37.2772 34.2018" stroke="black" stroke-width="0.387238" stroke-linecap="round" stroke-linejoin="round"/>
<path d="M27.1526 25.6204C26.789 30.5766 26.8518 35.9211 26.8354 40.8883" stroke="black" stroke-width="0.387238" stroke-linecap="round" stroke-linejoin="round"/>
<path d="M31.549 25.2868C28.1201 25.108 15.6145 25.428 12.9221 25.2742C12.8524 26.3238 13.0491 35.5481 12.8667 39.6569C18.7217 39.6372 25.3812 39.9036 31.2254 39.6569C31.2916 35.0009 31.549 29.9874 31.549 25.2868Z" fill="#5E71B5"/>
<path d="M27.8188 22.5662C27.7255 23.4126 27.6751 24.2633 27.668 25.1148" stroke="black" stroke-width="0.203506" stroke-linecap="round" stroke-linejoin="round"/>
<path d="M16.0537 22.7571C16.0537 23.5243 16.0537 24.688 16.0537 25.4494" stroke="black" stroke-width="0.203506" stroke-linecap="round" stroke-linejoin="round"/>
<path d="M8.30358 46.0025C8.30358 47.0082 8.12401 23.6062 8.39694 16.6139C9.65962 16.5637 10.8692 16.5091 12.1318 16.6384C12.1721 23.7542 12.2123 38.8852 12.2526 46.0025C10.806 46.0312 9.6108 46.0312 8.30358 46.0025Z" fill="white" stroke="black" stroke-width="0.203506" stroke-linecap="round" stroke-linejoin="round"/>
<path d="M14.2194 46.0024C11.2846 46.034 8.88995 46.034 6.33154 46.0024Z" fill="white"/>
<path d="M14.2194 46.0024C11.2846 46.034 8.88995 46.034 6.33154 46.0024" stroke="black" stroke-width="0.203506" stroke-linecap="round" stroke-linejoin="round"/>
<path d="M30.3056 22.4495C28.8361 22.4495 12.2301 22.4423 5.41391 22.3546C5.4369 22.0909 5.43979 21.8258 5.42254 21.5616C5.38425 20.8559 5.46244 20.1487 5.65387 19.4684C13.9439 19.3807 22.1736 19.0862 30.4636 19.4454C30.399 20.4123 30.3688 21.4826 30.3056 22.4495Z" fill="white" stroke="black" stroke-width="0.203506" stroke-linecap="round" stroke-linejoin="round"/>
<path d="M6.99641 46.0025C6.99641 47.0082 6.8169 23.6062 7.08984 16.6139C8.35252 16.5637 9.56205 16.5091 10.8247 16.6384C10.865 23.7542 10.9052 38.8852 10.9454 46.0025C9.49883 46.0312 8.30075 46.0312 6.99641 46.0025Z" fill="white" stroke="black" stroke-width="0.203506" stroke-linecap="round" stroke-linejoin="round"/>
<path d="M12.9152 46.0024C9.98042 46.034 7.58575 46.034 5.02734 46.0024Z" fill="white"/>
<path d="M12.9152 46.0024C9.98042 46.034 7.58575 46.034 5.02734 46.0024" stroke="black" stroke-width="0.203506" stroke-linecap="round" stroke-linejoin="round"/>
<path d="M29.0039 22.4495C27.5343 22.4495 10.9284 22.4423 4.11223 22.3546C4.13521 22.0909 4.13803 21.8258 4.12078 21.5616C4.08249 20.8559 4.16068 20.1487 4.35211 19.4684C12.6422 19.3807 20.8718 19.0862 29.1604 19.4454C29.0915 20.4123 29.0613 21.4826 29.0039 22.4495Z" fill="white" stroke="black" stroke-width="0.203506" stroke-linecap="round" stroke-linejoin="round"/>
<path d="M17.139 35.0579C16.753 35.0579 16.4326 35.0039 16.1779 34.8958C15.9231 34.7838 15.7301 34.6391 15.5989 34.4615C15.4676 34.284 15.3981 34.0948 15.3904 33.8941C15.3904 33.8632 15.402 33.8362 15.4252 33.813C15.4522 33.786 15.4831 33.7725 15.5178 33.7725H16.2473C16.3014 33.7725 16.3419 33.7822 16.3689 33.8015C16.3998 33.8208 16.4268 33.8459 16.45 33.8767C16.4809 33.9346 16.5233 33.9906 16.5774 34.0446C16.6353 34.0987 16.7086 34.1431 16.7974 34.1778C16.89 34.2087 17.0039 34.2241 17.139 34.2241C17.3629 34.2241 17.5308 34.1894 17.6427 34.1199C17.7585 34.0504 17.8164 33.9559 17.8164 33.8362C17.8164 33.7513 17.7856 33.6818 17.7238 33.6278C17.662 33.5699 17.5617 33.5197 17.4227 33.4772C17.2876 33.4309 17.1062 33.3846 16.8785 33.3383C16.5851 33.2765 16.3342 33.1974 16.1258 33.1009C15.9212 33.0005 15.7648 32.8712 15.6568 32.7129C15.5487 32.5508 15.4946 32.3501 15.4946 32.1108C15.4946 31.8753 15.5603 31.665 15.6915 31.4797C15.8266 31.2944 16.0138 31.1496 16.2531 31.0454C16.4925 30.9412 16.7762 30.8891 17.1043 30.8891C17.3706 30.8891 17.6041 30.9238 17.8049 30.9933C18.0094 31.0628 18.1812 31.1554 18.3202 31.2712C18.4591 31.387 18.5633 31.5106 18.6328 31.6418C18.7062 31.7692 18.7448 31.8946 18.7486 32.0181C18.7486 32.049 18.737 32.078 18.7139 32.105C18.6907 32.1282 18.6618 32.1397 18.627 32.1397H17.8628C17.8203 32.1397 17.7836 32.132 17.7527 32.1166C17.7219 32.1011 17.6948 32.076 17.6717 32.0413C17.6485 31.9564 17.5868 31.883 17.4864 31.8213C17.3899 31.7557 17.2625 31.7229 17.1043 31.7229C16.9344 31.7229 16.8013 31.7537 16.7048 31.8155C16.6121 31.8734 16.5658 31.9641 16.5658 32.0876C16.5658 32.1648 16.5909 32.2324 16.6411 32.2903C16.6951 32.3482 16.782 32.3984 16.9016 32.4408C17.0251 32.4833 17.193 32.5277 17.4053 32.574C17.7566 32.6396 18.0403 32.7226 18.2565 32.823C18.4726 32.9195 18.6309 33.0468 18.7313 33.2051C18.8316 33.3595 18.8818 33.5544 18.8818 33.7899C18.8818 34.0524 18.8065 34.2801 18.656 34.4731C18.5093 34.6622 18.3047 34.807 18.0422 34.9074C17.7798 35.0077 17.4787 35.0579 17.139 35.0579ZM21.1174 35.0579C20.7622 35.0579 20.4534 35 20.191 34.8842C19.9285 34.7684 19.7239 34.5947 19.5772 34.3631C19.4305 34.1276 19.3495 33.8343 19.334 33.483C19.3302 33.317 19.3283 33.1511 19.3283 32.9851C19.3283 32.8191 19.3302 32.6512 19.334 32.4813C19.3495 32.1339 19.4305 31.8425 19.5772 31.6071C19.7278 31.3677 19.9343 31.1882 20.1968 31.0686C20.4592 30.9489 20.7661 30.8891 21.1174 30.8891C21.4648 30.8891 21.7697 30.9489 22.0322 31.0686C22.2985 31.1882 22.507 31.3677 22.6575 31.6071C22.808 31.8425 22.8891 32.1339 22.9007 32.4813C22.9084 32.6512 22.9123 32.8191 22.9123 32.9851C22.9123 33.1511 22.9084 33.317 22.9007 33.483C22.8852 33.8343 22.8042 34.1276 22.6575 34.3631C22.5108 34.5947 22.3062 34.7684 22.0438 34.8842C21.7813 35 21.4725 35.0579 21.1174 35.0579ZM21.1174 34.2241C21.3219 34.2241 21.4879 34.1624 21.6153 34.0389C21.7465 33.9153 21.816 33.7185 21.8237 33.4483C21.8315 33.2784 21.8353 33.1182 21.8353 32.9677C21.8353 32.8172 21.8315 32.6608 21.8237 32.4987C21.816 32.3173 21.7813 32.1706 21.7195 32.0587C21.6616 31.9429 21.5806 31.858 21.4763 31.8039C21.3721 31.7499 21.2525 31.7229 21.1174 31.7229C20.9861 31.7229 20.8684 31.7499 20.7642 31.8039C20.66 31.858 20.577 31.9429 20.5152 32.0587C20.4534 32.1706 20.4187 32.3173 20.411 32.4987C20.4071 32.6608 20.4052 32.8172 20.4052 32.9677C20.4052 33.1182 20.4071 33.2784 20.411 33.4483C20.4226 33.7185 20.492 33.9153 20.6194 34.0389C20.7468 34.1624 20.9128 34.2241 21.1174 34.2241ZM23.7282 35C23.6857 35 23.651 34.9865 23.6239 34.9595C23.5969 34.9324 23.5834 34.8977 23.5834 34.8552V31.0917C23.5834 31.0493 23.5969 31.0145 23.6239 30.9875C23.651 30.9605 23.6857 30.947 23.7282 30.947H24.4924C24.531 30.947 24.5639 30.9605 24.5909 30.9875C24.6218 31.0145 24.6372 31.0493 24.6372 31.0917V34.1257H26.3858C26.4282 34.1257 26.463 34.1411 26.49 34.172C26.5209 34.199 26.5363 34.2338 26.5363 34.2763V34.8552C26.5363 34.8977 26.5209 34.9324 26.49 34.9595C26.463 34.9865 26.4282 35 26.3858 35H23.7282ZM27.1829 35C27.1405 35 27.1057 34.9865 27.0787 34.9595C27.0517 34.9324 27.0382 34.8977 27.0382 34.8552V31.0917C27.0382 31.0493 27.0517 31.0145 27.0787 30.9875C27.1057 30.9605 27.1405 30.947 27.1829 30.947H28.6883C29.0666 30.947 29.3889 31.0088 29.6553 31.1323C29.9216 31.2519 30.1262 31.4295 30.269 31.665C30.4118 31.8966 30.489 32.1841 30.5006 32.5277C30.5045 32.6975 30.5064 32.8461 30.5064 32.9735C30.5064 33.1009 30.5045 33.2476 30.5006 33.4135C30.4852 33.7725 30.408 34.0697 30.269 34.3052C30.1339 34.5407 29.9351 34.7163 29.6726 34.8321C29.414 34.944 29.0956 35 28.7173 35H27.1829ZM28.0746 34.1662H28.6883C28.8543 34.1662 28.9913 34.1411 29.0994 34.091C29.2114 34.0369 29.2944 33.9539 29.3484 33.842C29.4063 33.7301 29.4372 33.5834 29.441 33.402C29.4488 33.29 29.4526 33.1897 29.4526 33.1009C29.4565 33.0121 29.4565 32.9233 29.4526 32.8345C29.4526 32.7458 29.4488 32.6473 29.441 32.5392C29.4333 32.2768 29.3638 32.0857 29.2326 31.966C29.1052 31.8425 28.9141 31.7808 28.6594 31.7808H28.0746V34.1662Z" fill="white"/>
</svg>
